<?xml version="1.0" encoding="utf-8"?>
<svg xmlns="http://www.w3.org/2000/svg" viewBox="0 0 500 500">
  <g transform="matrix(0.525323, 0, 0, 0.525323, -81.979013, 51.145695)" style="">
    <path d="M214.009 219.026 253.117 228.171 246.738 371.172 313.009 358.693 313.009 413.026 220.117 413.026Z" fill="#F2F2F2" fill-rule="evenodd"/>
    <path d="M445.576 305.24C446.685 310.213 447.607 316.338 448.347 323.616 449.081 330.883 449.211 338.706 448.743 347.079 448.284 355.457 446.941 363.789 444.722 372.079 442.514 380.358 439.003 387.999 434.201 395.002 431.436 399.061 428.108 402.555 424.223 405.488L410.369 414.063C408.338 415.351 405.755 416.451 402.619 417.365 399.479 418.289 396.708 418.844 394.307 419.026L360.496 419.026C357.173 419.026 353.621 418.055 349.829 416.119 346.038 414.193 343.126 411.945 341.1 409.371 337.402 404.387 333.798 396.746 330.288 386.447 326.773 376.138 325.017 361.588 325.017 342.802L325.58 314.895C325.58 313.431 325.767 311.864 326.142 310.203 327.434 305.053 330.335 300.184 334.85 295.585 339.376 290.975 344.23 287.933 349.412 286.449 353.48 285.343 358.376 284.383 364.1 283.562 369.818 282.732 374.714 282.223 378.787 282.026 383.396 282.223 388.75 282.545 394.849 283.002 400.942 283.459 406.994 284.154 412.994 285.078 419.004 285.992 424.327 287.004 428.952 288.11 432.644 289.039 436.149 291.157 439.472 294.463 442.805 297.775 444.837 301.367 445.576 305.24ZM405.119 362.133C408.062 357.165 410.041 351.642 411.056 345.563 412.082 339.49 412.41 333.64 412.035 328.018 411.671 322.401 411.213 317.844 410.661 314.355 410.286 312.32 409.312 310.431 407.744 308.687 406.171 306.943 404.374 305.795 402.348 305.24 399.567 304.508 396.192 303.911 392.224 303.454 388.25 302.987 384.88 302.748 382.12 302.748 381.562 302.748 381.005 302.748 380.453 302.748 374.912 302.748 369.459 303.304 364.1 304.409 361.516 305.146 359.162 306.756 357.037 309.247 354.912 311.729 353.569 314.35 353.017 317.117 352.834 317.854 352.746 318.586 352.746 319.318 352.746 319.499 352.746 319.588 352.746 319.588L352.454 334.226C352.454 344.359 353.287 352.099 354.954 357.44 356.621 362.787 358.376 366.742 360.225 369.317 362.433 372.447 365.381 374.01 369.078 374.01 369.271 374.01 369.459 373.922 369.641 373.74L385.995 373.74C385.995 373.922 386.083 374.01 386.266 374.01 388.849 374.01 391.25 373.278 393.474 371.809L400.119 367.656C402.161 365.995 403.827 364.157 405.119 362.133Z" fill="#F2F2F2" fill-rule="evenodd"/>
    <path d="M530.14 281.131C533.999 281.871 538.688 282.794 544.207 283.904 549.726 285.02 555.618 286.312 561.884 287.782 566.475 288.715 570.105 291.306 572.777 295.559 575.443 299.802 577.372 304.702 578.565 310.258 579.769 315.804 580.505 321.262 580.785 326.625 581.06 331.978 581.102 336.461 580.91 340.073 580.728 343.675 580.64 345.473 580.64 345.473L544.207 334.924C545.312 332.521 546.183 329.607 546.821 326.187 547.47 322.768 547.796 319.766 547.796 317.18 547.796 315.153 546.23 312.614 543.108 309.57 539.98 306.516 536.344 303.743 532.194 301.251 528.055 298.749 524.611 297.498 521.862 297.498 518.916 297.681 516.198 299.437 513.708 302.773 511.229 306.099 509.071 310.488 507.235 315.95 505.393 321.402 504.195 327.079 503.645 332.985 503.09 337.613 502.815 342.982 502.815 349.08 502.815 355.184 502.904 361.236 503.085 367.241 503.277 373.245 503.604 378.375 504.06 382.628 504.517 386.881 505.02 389.477 505.575 390.405 506.125 391.322 507.878 391.781 510.824 391.781 513.77 391.781 517.173 391.463 521.032 390.822 524.891 390.17 528.428 389.336 531.655 388.32 534.876 387.309 536.852 386.334 537.589 385.401 538.875 384.108 539.793 382.221 540.348 379.73 540.898 377.228 541.313 375.012 541.593 373.079 541.868 371.134 542.008 370.16 542.008 370.16L578.15 370.16 580.37 402.602C580.37 402.602 578.156 402.93 573.731 403.582 569.317 404.223 563.751 405.01 557.029 405.938 550.317 406.855 543.325 407.783 536.053 408.711 528.792 409.628 522.215 410.415 516.322 411.067 510.44 411.708 506.306 412.026 503.915 412.026 499.682 411.844 495.082 411.578 490.118 411.213 485.149 410.838 480.641 410.233 476.59 409.399 472.55 408.565 469.79 407.413 468.312 405.938 466.113 403.895 464.183 398.489 462.523 389.717 460.864 380.934 460.583 368.591 461.694 352.688 462.798 336.592 464.816 323.237 467.752 312.614 470.698 301.981 474.381 294.819 478.81 291.118 481.933 288.522 485.844 286.437 490.533 284.863 495.222 283.294 499.771 282.048 504.185 281.131 508.417 280.396 512.743 280.026 517.173 280.026 521.582 280.026 525.908 280.396 530.14 281.131Z" fill="#F2F2F2" fill-rule="evenodd"/>
    <path d="M706.565 378.698C706.565 382.186 706.695 385.87 706.961 389.741 707.237 393.601 706.778 397.193 705.584 400.513 704.385 403.824 701.564 406.398 697.116 408.235 693.612 409.522 689.357 410.721 684.351 411.826 679.355 412.931 675.012 413.663 671.315 414.026 671.315 414.026 671.221 414.026 671.043 414.026 669.192 414.026 668.176 413.014 667.998 410.996L667.435 407.405C667.435 406.299 666.788 405.744 665.495 405.744 663.086 405.941 658.925 406.175 653.001 406.45 647.088 406.73 640.805 406.958 634.146 407.135 627.482 407.316 621.469 407.228 616.104 406.865 610.733 406.491 607.406 405.755 606.113 404.644 604.079 402.807 602.65 400.825 601.816 398.708 600.982 396.59 600.424 393.742 600.147 390.156 599.866 386.56 599.548 381.635 599.188 375.377 598.63 366.177 599.042 359.281 600.418 354.683 601.806 350.075 603.704 347.31 606.113 346.381 607.041 345.841 610.003 345.296 614.998 344.741 619.988 344.191 625.907 343.594 632.748 342.956 639.59 342.307 646.337 341.752 653.001 341.295 659.66 340.828 665.208 340.413 669.646 340.05 674.094 339.676 676.32 339.49 676.32 339.49 676.32 339.49 676.18 338.203 675.903 335.629 675.622 333.045 675.246 330.004 674.777 326.517 674.318 323.019 673.718 319.75 672.983 316.72 672.243 313.679 671.408 311.603 670.48 310.493 669.005 308.832 666.142 308.002 661.887 308.002 657.632 308.002 653.236 308.417 648.705 309.247 644.168 310.078 640.888 310.96 638.86 311.883 637.191 312.797 636.263 314.224 636.086 316.159 635.903 318.1 635.992 319.89 636.357 321.535 636.534 321.909 636.628 322.189 636.628 322.365 636.628 324.763 635.428 326.05 633.04 326.226 630.438 326.6 627.148 326.885 623.174 327.077 619.196 327.259 615.217 327.259 611.244 327.077 607.265 326.885 603.745 326.33 600.69 325.417 597.644 324.493 595.752 323.019 595.016 320.995 592.983 315.838 592.519 310.358 593.619 304.556 594.729 298.76 596.768 293.467 599.73 288.678 601.023 286.286 604.074 284.402 608.887 283.032 613.695 281.652 618.925 280.681 624.572 280.126 630.214 279.576 635.116 279.254 639.277 279.171 643.433 279.078 645.513 279.026 645.513 279.026 645.513 279.026 647.224 279.078 650.644 279.171 654.065 279.254 658.179 279.348 662.992 279.441 667.8 279.524 672.284 279.706 676.446 279.981 680.617 280.261 683.438 280.676 684.914 281.226 687.693 282.337 690.327 284.641 692.819 288.138 695.322 291.625 697.309 295.859 698.785 300.841 699.337 302.865 699.937 306.456 700.578 311.614 701.23 316.761 701.924 322.698 702.664 329.423 703.415 336.137 704.062 342.852 704.604 349.577 705.156 356.292 705.626 362.27 706.001 367.511 706.377 372.757 706.565 376.488 706.565 378.698ZM658.278 390.011C662.909 390.011 667.211 389.969 671.189 389.886 675.163 389.793 678.396 388.641 680.888 386.441 683.391 384.23 684.643 379.985 684.643 373.717 684.643 364.517 683.621 358.451 681.577 355.513 679.543 352.566 676.769 350.999 673.254 350.802 670.845 350.444 668.353 350.262 665.766 350.262 664.473 350.262 663.269 350.356 662.158 350.532 662.158 350.532 661.094 350.719 658.967 351.092 656.839 351.456 654.482 352.234 651.896 353.438 649.309 354.631 647.041 356.38 645.096 358.689 643.146 360.988 642.364 364.159 642.739 368.196 643.292 376.114 644.309 381.729 645.784 385.05 647.271 388.361 651.437 390.011 658.278 390.011Z" fill="#F2F2F2" fill-rule="evenodd"/>
    <path d="M724.344 413.649 719.049 225.412C722.382 226.154 726.506 226.8 731.419 227.353 736.343 227.911 740.571 228.281 744.103 228.459 747.254 228.642 750.686 227.947 754.402 226.373 758.112 224.802 761.314 223.19 764.009 221.531 766.699 219.861 768.049 219.026 768.049 219.026L764.993 415.026Z" fill="#F2F2F2" fill-rule="evenodd"/>
    <path d="M900.612 305.24C901.721 310.213 902.643 316.338 903.383 323.616 904.117 330.883 904.247 338.706 903.778 347.079 903.32 355.457 901.976 363.789 899.758 372.079 897.55 380.358 894.039 387.999 889.237 395.002 886.472 399.061 883.144 402.555 879.258 405.488L865.405 414.063C863.374 415.351 860.79 416.451 857.655 417.365 854.514 418.289 851.744 418.844 849.343 419.026L815.531 419.026C812.209 419.026 808.656 418.055 804.865 416.119 801.073 414.193 798.162 411.945 796.136 409.371 792.438 404.387 788.834 396.746 785.324 386.447 781.808 376.138 780.053 361.588 780.053 342.802L780.616 314.895C780.616 313.431 780.803 311.864 781.178 310.203 782.47 305.053 785.371 300.184 789.886 295.585 794.412 290.975 799.266 287.933 804.448 286.449 808.516 285.343 813.412 284.383 819.135 283.562 824.854 282.732 829.75 282.223 833.822 282.026 838.432 282.223 843.786 282.545 849.884 283.002 855.978 283.459 862.03 284.154 868.03 285.078 874.04 285.992 879.363 287.004 883.987 288.11 887.68 289.039 891.185 291.157 894.508 294.463 897.841 297.775 899.872 301.367 900.612 305.24ZM860.155 362.133C863.098 357.165 865.077 351.642 866.092 345.563 867.118 339.49 867.446 333.64 867.071 328.018 866.707 322.401 866.248 317.844 865.696 314.355 865.321 312.32 864.347 310.431 862.78 308.687 861.207 306.943 859.41 305.795 857.384 305.24 854.603 304.508 851.228 303.911 847.259 303.454 843.286 302.987 839.916 302.748 837.156 302.748 836.598 302.748 836.041 302.748 835.489 302.748 829.948 302.748 824.495 303.304 819.135 304.409 816.552 305.146 814.198 306.756 812.073 309.247 809.948 311.729 808.604 314.35 808.052 317.117 807.87 317.854 807.781 318.586 807.781 319.318 807.781 319.499 807.781 319.588 807.781 319.588L807.49 334.226C807.49 344.359 808.323 352.099 809.99 357.44 811.656 362.787 813.412 366.742 815.26 369.317 817.469 372.447 820.417 374.01 824.114 374.01 824.307 374.01 824.495 373.922 824.677 373.74L841.031 373.74C841.031 373.922 841.119 374.01 841.301 374.01 843.885 374.01 846.286 373.278 848.509 371.809L855.155 367.656C857.197 365.995 858.863 364.157 860.155 362.133Z" fill="#F2F2F2" fill-rule="evenodd"/>
    <path d="M927.009 453.755 956.453 400.282 915.064 301.898 956.182 280.026 997.843 345.685 1034.78 283.338 1065.06 308.564 968.67 454.026Z" fill="#F2F2F2" fill-rule="evenodd"/>
    <path d="M441.491 468.034 440.24 477.271 447.025 477.271 446.346 482.538 439.562 482.538 438.205 493.133 445.456 493.133 444.777 498.379 437.505 498.379 436.276 508.034 430.869 508.034 432.099 498.379 423.618 498.379 422.389 508.034 416.982 508.034 418.212 498.379 411.025 498.379 411.703 493.133 418.89 493.133 420.268 482.538 412.594 482.538 413.293 477.271 420.947 477.271 422.177 468.034 427.583 468.034 426.353 477.271 434.834 477.271 436.085 468.034ZM424.297 493.133 432.798 493.133 434.155 482.538 425.675 482.538Z" fill="#F2F2F2" fill-rule="evenodd"/>
    <text fill="#F2F2F2" font-family="Calibri,Calibri_MSFontService,sans-serif" font-weight="700" font-size="51" transform="translate(452.938 501)" style="white-space: pre;">DiscoverLocaloy</text>
  </g>
</svg>